# xmcd CD database file
#
# Track frame offsets:
#	150
#	17554
#	36529
#	63433
#	90901
#	115644
#	139231
#	157211
#	175467
#
# Disc length: 2693 seconds
#
# Revision: 0
# Processed by: cddbd v1.5.1PL0 Copyright (c) Steve Scherf et al.
# Submitted via: CDex 1.51
#
DISCID=760a8309
DTITLE=Geodezik - Plaktron
DYEAR=1900
DGENRE=Techno
TTITLE0=Aslan
TTITLE1=Feb.gui
TTITLE2=Return to nowhere
TTITLE3=Ayana
TTITLE4=Love theme
TTITLE5=Mas
TTITLE6=Plaktron
TTITLE7=No tears
TTITLE8=No teras - mini mix by Denty One
EXTD=
EXTT0=
EXTT1=
EXTT2=
EXTT3=
EXTT4=
EXTT5=
EXTT6=
EXTT7=
EXTT8=
PLAYORDER=
